# xmcd
# Copyright (C) 1995-1998 Ti Kan
#
# Track frame offsets:
#       150
#       10632
#       29142
#       42896
#
# Disc length: 705 seconds
#
# Revision: 3
# Processed by: cddbd v1.5.2PL0 Copyright (c) Steve Scherf et al.
# Submitted via: CD-Import v1.0
#
DISCID=2802bf04
DTITLE=Ventures - 
DYEAR=1900
DGENRE=
TTITLE0=Goldfinger
TTITLE1=Goldfinger
TTITLE2=Goldfinger
TTITLE3=Goldfinger
EXTD=
EXTT0=
EXTT1=
EXTT2=
EXTT3=
PLAYORDER=
